<?xml version="1.0" encoding="utf-8"?>
<!-- Generator: Adobe Illustrator 25.0.0, SVG Export Plug-In . SVG Version: 6.00 Build 0)  -->
<svg version="1.1" id="Слой_1" xmlns="http://www.w3.org/2000/svg" xmlns:xlink="http://www.w3.org/1999/xlink" x="0px" y="0px"
	 viewBox="0 0 1157.35 459.64" style="enable-background:new 0 0 1157.35 459.64;" xml:space="preserve">
<style type="text/css">
	.st0{fill-rule:evenodd;clip-rule:evenodd;fill:#ED1C24;}
	.st1{opacity:0.9;fill-rule:evenodd;clip-rule:evenodd;fill:#231F20;enable-background:new    ;}
	.st2{fill:#333333;}
</style>
<g id="New_Layer">
	<path class="st0" d="M269.76,60.59c-32.2,6.9-73,32.2-117.2,72.7c-41.6,38.1-73.5,81.2-91.6,123.4c-6.9,16.3-9.2,24.3-12.7,44.9
		c-1.4,8-2.8,15.6-3.1,17c-0.2,1.4,2-2,4.9-7.5c6.9-12.8,12.6-22.2,19-31c11.9-16.7,18-21.9,27-23.1c6.7-0.9,14.4,2.9,17.7,8.8
		c3.2,5.6,2.9,11.3-0.9,24.7c-1.7,5.8-2.9,10.6-2.8,10.7c0.2,0.2,3.6-4.3,7.7-9.9c10-13.5,27.5-31.2,37.3-37.5
		c18.5-12,32.8-13.2,47.2-4.1l4.7,3l1.5-2.1c2.9-4.1,16.5-14.8,23.6-18.6c6.5-3.5,7.9-3.9,14.8-3.9c6.6,0,8.1,0.3,11.8,2.8
		c2.3,1.5,5.6,4.9,7.3,7.5c2.6,4.1,2.9,4.3,2.3,1.7c-2.1-8.9-4.5-24.6-5.6-37c-4.4-51.5,9.7-93.2,38.4-112.7
		c14.9-10.1,24.3-10.3,39.7-0.9c2.8,1.7,5.3,3.1,5.5,3.1c1.3,0-8.5-12.8-13.8-18.1c-6.4-6.4-16.3-11.9-26.2-14.4
		C298.16,57.99,280.56,58.29,269.76,60.59z M272.66,71.99c-0.2,0.2-4,1.9-8.4,3.6c-13.6,5.4-35.3,17.1-50.7,27.2
		c-50.4,33.4-94.2,79.7-131.6,138.9c-4.7,7.6-8.8,13.6-9,13.5c-0.1-0.2,2.6-5.5,6.1-11.7c41.4-74,102-132.9,166.6-161.9
		C258.16,75.99,274.56,70.19,272.66,71.99z M260.76,89.09c0,0.2-2.4,1.7-5.2,3.1c-31.2,15.8-65.9,53.7-94.8,103.4
		c-6.7,11.6-22,41.4-28.3,55.5c-4.3,9.6-2,2.1,3.5-10.9c28.5-68.5,71.7-123.9,113.9-146.1C261.06,88.19,260.76,88.39,260.76,89.09z
		 M239.96,118.99c-16.9,17.9-27.4,46.9-31.7,87.8c-0.8,8.1-1.5,17.8-1.6,21.5c-0.1,6.1-0.2,6.4-1,3.3c-1.2-4.3-0.3-24.8,1.6-39.5
		c4.4-33.2,15.7-59.6,31.6-73.9C245.66,111.99,246.26,112.39,239.96,118.99z"/>
	<path class="st0" d="M435.56,93.09c6,4.5,12.3,11,14.4,14.9c1.1,2.1,1.1,2-5.9-2.7c-21-14.1-52.7-17.4-80.6-8.2
		c-8,2.6-24,9.5-23.4,10.1c0.2,0.2,3.9-0.3,8.2-1.1c20.6-4,42-3.9,53.9,0.2l5.1,1.7l-7.5,0.8c-14.8,1.5-29.8,7.7-40.1,16.5
		c-7.1,6-9.5,9.5-3.3,4.7c11-8.4,31.6-13.9,43.9-11.6c3.9,0.7,3.9,0.8-5.4,3.1c-14.8,3.6-28.1,10-38.7,18.7
		c-10.5,8.6-23.1,27.5-29,43.3c-4.8,13.2-4.9,15.6-0.2,6.7c2.3-4.4,4.4-7.4,4.5-6.9c0.2,0.6-0.5,4.6-1.6,8.9
		c-1.1,4.4-2.5,11.5-3.2,15.9c-1.5,9.3-1.6,35.9-0.1,42.5l1,4.5l0.1-5.7c0.2-10,1.2-9.5,4.1,1.9c5,19.9,11.7,32.3,23.7,43.9
		c7.8,7.7,15.6,12.9,25.3,17c8.3,3.6,20.5,6.4,27.2,6.3h4.3l-5.5-1.8c-31.6-10.1-55.1-40.3-56.6-72.6l-0.5-10l3.1,6
		c3.9,7.4,6.9,11,4.5,5.3c-2.6-6.4-3.7-17.3-2.5-26.1c2.2-15.8,8.3-27.9,20-39.8c8.3-8.3,17.8-14.5,28.5-18.3
		c6.9-2.5,6.9-2.5,4.1-0.3c-3.5,2.6-10.8,9.5-8.6,8c3.9-2.6,14.2-5.5,21.5-6c6.3-0.4,9.8-0.1,16.5,1.6c7.8,2,12.4,4.1,9,4.1
		c-2.6,0-11.8,4.8-16.7,8.6c-2.7,2-3.9,3.4-2.8,2.9c1.1-0.4,4.1-1.6,6.6-2.6c8.1-3.1,20.6-4.4,30.3-3.1c10.6,1.4,14.3,3.2,16.2,8
		c0.8,2,3.2,5.2,5.2,7l3.7,3.2l-2.8,2.5l-2.8,2.5h2.9c1.6,0,4.6-1.1,6.6-2.5s4.1-2.5,4.6-2.5c1.9,0,5-4,5-6.5c0-2.2-0.3-2.4-1.9-1.5
		c-2.7,1.4-4.1,1.3-4.1-0.4c0-0.9-0.7-1.2-1.9-0.9c-1.3,0.3-2.9-0.9-5.7-4.3c-2.1-2.6-6-6.9-8.6-9.6c-7.4-7.6-7.8-12.8-1.1-12.8
		c6.1,0,11.2,1.9,15.4,5.7c3.4,3.1,4.9,3.7,10.2,4.2c5.9,0.6,6.2,0.7,6.2,3.2c0,2.1,0.3,2.5,1.9,2.1c1.6-0.4,1.8-0.1,1.2,2.1
		c-0.7,3,0.6,3.6,2.6,1.2c0.7-0.9,2.4-2.6,3.7-3.9c1.4-1.4,2.3-3.6,2.3-5.2s0.9-4,1.9-5.3c1.2-1.5,1.9-4,1.9-6.8
		c0-5.6-3.1-8.8-11.7-12.1c-6.7-2.5-13.1-8.3-16.2-14.6c-1.2-2.2-2.1-3.5-2.1-2.8c0,2.6,3.9,8.8,8.2,12.9c2.4,2.3,7.3,5.5,10.9,7.2
		c8.2,3.9,10.2,7.2,7.6,12.7c-1.6,3.3-4,4.4-5.2,2.4c-0.3-0.6-2.8-1-5.5-1c-3.9,0-6.1-0.7-10.4-3.5c-5.3-3.3-5.4-3.6-4.9-7.3
		c0.6-4.7-2.3-8.7-9-12.2c-3.8-2-4.7-3.1-6.1-7.5c-5-15.9-22.7-31.9-40.6-36.8C428.96,88.09,428.86,88.09,435.56,93.09z
		 M484.66,144.19c2.4,3,4.1,5.8,3.7,6.1c-0.3,0.3-2.7-0.5-5.3-1.8c-4.8-2.4-6.3-5-4.9-8.5
		C479.06,137.69,480.06,138.29,484.66,144.19z"/>
	<path class="st1" d="M362.26,112.39c-18.8,8.7-30.2,16.8-43.6,30.9c-17,17.8-28,39.4-33.1,64.7c-2.6,13.2-2.8,35.4-0.4,47.9
		c6.4,33.2,24.6,62.1,52,82.9c12.9,9.7,33.1,18.6,50.6,22.4c10.7,2.2,32.9,3,44.2,1.4c49.7-6.7,92.2-42.3,107.2-89.9
		c1.4-4.5,2.6-8.5,2.6-8.9s-2,3-4.5,7.5c-6.4,12-12.9,20.7-22,29.8c-17.6,17.3-37.5,27.8-64,33.6c-9.2,2-34.2,1.8-44.5-0.5
		c-25.4-5.5-46.7-17.2-64-35.2c-12.2-12.8-21-26.9-26.8-43.6c-15.4-43.7-4.1-93.1,28.9-125.6c6.9-6.9,18.4-15.9,23.7-18.6
		c3-1.6,4.1-2.7,2.5-2.6C370.56,108.69,366.66,110.39,362.26,112.39z"/>
	<path class="st0" d="M494.86,121.19c0,1.1,0.3,1.4,0.6,0.6c0.3-0.7,0.2-1.6-0.1-1.9C495.06,119.49,494.76,120.09,494.86,121.19z"/>
</g>
<g id="MasterLayer_1">
	<g>
		<path class="st2" d="M425.51,199.47h45.87c15.57,0,27.65,5.6,36.24,16.8c7.66,10.11,11.49,23.05,11.49,38.83
			c0,12.19-2.26,23.2-6.79,33.05c-7.97,17.4-21.66,26.09-41.09,26.09h-45.72V199.47z M468.34,300.95c5.14,0,9.37-0.55,12.68-1.64
			c5.91-2.03,10.75-5.94,14.51-11.72c3-4.63,5.17-10.57,6.49-17.81c0.76-4.32,1.15-8.33,1.15-12.03c0-14.22-2.76-25.26-8.29-33.12
			s-14.42-11.8-26.7-11.8h-26.96v88.12H468.34z"/>
		<path class="st2" d="M543.03,199.47h52.17c8.59,0,15.67,1.28,21.25,3.83c10.59,4.9,15.88,13.93,15.88,27.11
			c0,6.88-1.42,12.5-4.26,16.88s-6.81,7.89-11.91,10.55c4.48,1.82,7.85,4.22,10.12,7.19s3.53,7.79,3.79,14.45l0.55,15.39
			c0.16,4.38,0.52,7.63,1.09,9.77c0.94,3.65,2.6,5.99,5,7.03v2.58h-19.06c-0.52-0.99-0.94-2.27-1.25-3.83s-0.57-4.58-0.78-9.06
			l-0.94-19.14c-0.35-7.5-3.06-12.53-8.12-15.08c-2.89-1.41-7.42-2.11-13.59-2.11h-34.38v49.22h-15.55L543.03,199.47L543.03,199.47z
			 M593.53,252.05c7.09,0,12.7-1.46,16.83-4.38s6.19-8.18,6.19-15.78c0-8.18-2.89-13.75-8.66-16.72c-3.09-1.56-7.22-2.34-12.38-2.34
			h-36.92v39.22H593.53z"/>
		<path class="st2" d="M690.86,199.47h17.58l41.64,114.77h-17.03l-11.64-34.38h-45.39l-12.42,34.38h-15.94L690.86,199.47z
			 M716.41,267.2l-17.42-50.7l-18.52,50.7H716.41z"/>
		<path class="st2" d="M841.42,202.75c11.24,5.99,18.12,16.48,20.64,31.48h-15.39c-1.84-8.38-5.64-14.49-11.4-18.32
			c-5.76-3.83-13.03-5.74-21.8-5.74c-10.41,0-19.17,3.98-26.28,11.95c-7.12,7.97-10.67,19.84-10.67,35.62
			c0,13.65,2.93,24.75,8.8,33.32s15.44,12.85,28.71,12.85c10.16,0,18.57-3.01,25.23-9.02c6.66-6.02,10.07-15.74,10.23-29.18h-35.94
			v-12.89h50.39v61.41h-10l-3.75-14.77c-5.18,5.78-9.76,9.79-13.76,12.03c-6.71,3.85-15.24,5.78-25.59,5.78
			c-13.37,0-24.88-4.4-34.51-13.2c-10.5-11.04-15.75-26.2-15.75-45.47c0-19.22,5.13-34.5,15.4-45.86
			c9.75-10.83,22.38-16.25,37.88-16.25C824.48,196.5,833.67,198.58,841.42,202.75z"/>
		<path class="st2" d="M984.81,215.88c7.6,10.16,11.41,23.15,11.41,38.98c0,17.14-4.35,31.38-13.05,42.73
			c-10.21,13.33-24.77,20-43.67,20c-17.66,0-31.54-5.83-41.64-17.5c-9.01-11.25-13.52-25.47-13.52-42.66
			c0-15.52,3.85-28.8,11.56-39.84c9.89-14.17,24.53-21.25,43.91-21.25C960.07,196.34,975.07,202.86,984.81,215.88z M971.1,289.03
			c6.12-9.83,9.18-21.12,9.18-33.9c0-13.5-3.53-24.37-10.59-32.61s-16.71-12.35-28.95-12.35c-11.88,0-21.56,4.08-29.06,12.24
			s-11.25,20.19-11.25,36.08c0,12.72,3.21,23.45,9.65,32.18c6.43,8.73,16.86,13.1,31.29,13.1
			C955.07,303.77,964.98,298.85,971.1,289.03z"/>
		<path class="st2" d="M1015.53,199.47h18.31l57.23,92.73v-92.73h14.84v114.77h-17.47l-58.08-92.62v92.62h-14.84V199.47H1015.53z"/>
	</g>
	<g>
		<path class="st2" d="M672.49,397.26h-1.76l23.12-57.12h2.08l22.56,57.12h-1.76l-7.52-18.8h-29.12L672.49,397.26z M694.97,341.74
			h-0.16l-14.08,35.12h27.84L694.97,341.74z"/>
		<path class="st2" d="M763.85,340.14v35.84c0,7.68-1.79,13.36-5.36,17.04s-8.77,5.52-15.6,5.52c-6.83,0-12.03-1.84-15.6-5.52
			c-3.57-3.68-5.36-9.36-5.36-17.04v-35.84h1.6v35.84c0,6.88,1.57,12.11,4.72,15.68c3.15,3.57,8.03,5.36,14.64,5.36
			s11.49-1.79,14.64-5.36s4.72-8.8,4.72-15.68v-35.84H763.85z"/>
		<path class="st2" d="M766.89,340.14h42.64v1.6h-20.56v55.52h-1.6v-55.52h-20.48L766.89,340.14L766.89,340.14z"/>
		<path class="st2" d="M810.73,368.7c0-4.05,0.57-7.89,1.72-11.52c1.15-3.63,2.83-6.8,5.04-9.52c2.21-2.72,4.96-4.88,8.24-6.48
			c3.28-1.6,7.05-2.4,11.32-2.4s8.04,0.8,11.32,2.4s6.03,3.76,8.24,6.48c2.21,2.72,3.89,5.89,5.04,9.52
			c1.15,3.63,1.72,7.47,1.72,11.52c0,4.05-0.57,7.89-1.72,11.52c-1.15,3.63-2.83,6.8-5.04,9.52c-2.21,2.72-4.96,4.87-8.24,6.44
			s-7.05,2.36-11.32,2.36s-8.04-0.79-11.32-2.36s-6.03-3.72-8.24-6.44c-2.21-2.72-3.89-5.89-5.04-9.52
			C811.3,376.59,810.73,372.75,810.73,368.7z M812.33,368.7c0.05,4.11,0.65,7.89,1.8,11.36c1.15,3.47,2.77,6.45,4.88,8.96
			s4.68,4.47,7.72,5.88c3.04,1.41,6.48,2.12,10.32,2.12s7.28-0.71,10.32-2.12s5.61-3.37,7.72-5.88s3.73-5.49,4.88-8.96
			c1.15-3.47,1.75-7.25,1.8-11.36c-0.05-4.11-0.65-7.89-1.8-11.36c-1.15-3.47-2.77-6.45-4.88-8.96s-4.68-4.47-7.72-5.88
			s-6.48-2.12-10.32-2.12s-7.28,0.71-10.32,2.12s-5.61,3.37-7.72,5.88s-3.73,5.49-4.88,8.96
			C812.98,360.81,812.38,364.59,812.33,368.7z"/>
		<path class="st2" d="M892.41,397.26v-57.12h23.12c5.49,0,9.76,1.31,12.8,3.92s4.56,6.51,4.56,11.68c0,2.51-0.45,4.73-1.36,6.68
			s-2.16,3.57-3.76,4.88c-1.6,1.31-3.51,2.29-5.72,2.96c-2.21,0.67-4.65,1-7.32,1h-20.72v26H892.41z M915.53,369.66
			c2.24,0,4.32-0.31,6.24-0.92s3.59-1.52,5-2.72s2.52-2.65,3.32-4.36s1.2-3.68,1.2-5.92c0-4.53-1.29-8-3.88-10.4
			s-6.55-3.6-11.88-3.6h-21.52v27.92L915.53,369.66L915.53,369.66z"/>
		<path class="st2" d="M930.49,397.26h-1.76l23.12-57.12h2.08l22.56,57.12h-1.76l-7.52-18.8h-29.12L930.49,397.26z M952.97,341.74
			h-0.16l-14.08,35.12h27.84L952.97,341.74z"/>
		<path class="st2" d="M979.93,397.26v-57.12h23.36c5.97,0,10.35,1.19,13.12,3.56s4.21,6.07,4.32,11.08
			c0.11,3.84-0.91,7.03-3.04,9.56c-2.13,2.53-5.2,4.25-9.2,5.16v0.16c2.4,0.32,4.35,0.89,5.84,1.72c1.49,0.83,2.64,1.91,3.44,3.24
			s1.33,2.91,1.6,4.72c0.27,1.81,0.4,3.87,0.4,6.16c0,0.8,0.03,1.8,0.08,3c0.05,1.2,0.13,2.39,0.24,3.56s0.24,2.24,0.4,3.2
			s0.37,1.63,0.64,2h-1.76c-0.27-0.59-0.48-1.37-0.64-2.36c-0.16-0.99-0.28-2.04-0.36-3.16c-0.08-1.12-0.13-2.25-0.16-3.4
			c-0.03-1.15-0.04-2.17-0.04-3.08c0-2.35-0.17-4.44-0.52-6.28c-0.35-1.84-1.05-3.39-2.12-4.64s-2.59-2.21-4.56-2.88s-4.61-1-7.92-1
			h-21.52v26.8L979.93,397.26L979.93,397.26z M1002.89,368.86c2.13,0,4.17-0.27,6.12-0.8c1.95-0.53,3.67-1.39,5.16-2.56
			s2.69-2.65,3.6-4.44s1.36-3.93,1.36-6.44c-0.05-4.05-1.28-7.21-3.68-9.48c-2.4-2.27-6.32-3.4-11.76-3.4h-22.16v27.12H1002.89z"/>
		<path class="st2" d="M1023.21,340.14h42.64v1.6h-20.56v55.52h-1.6v-55.52h-20.48V340.14z"/>
		<path class="st2" d="M1105.33,348.74c-0.99-2-2.29-3.63-3.92-4.88s-3.56-2.15-5.8-2.68c-2.24-0.53-4.64-0.8-7.2-0.8
			c-1.97,0-4.03,0.2-6.16,0.6c-2.13,0.4-4.07,1.11-5.8,2.12c-1.73,1.01-3.16,2.36-4.28,4.04s-1.68,3.8-1.68,6.36
			s0.57,4.61,1.72,6.16s2.64,2.8,4.48,3.76s3.93,1.71,6.28,2.24c2.35,0.53,4.75,1.09,7.2,1.68c2.67,0.69,5.19,1.36,7.56,2
			c2.37,0.64,4.44,1.49,6.2,2.56s3.16,2.48,4.2,4.24s1.56,4.13,1.56,7.12c0,2.72-0.59,5.04-1.76,6.96
			c-1.17,1.92-2.72,3.51-4.64,4.76s-4.08,2.16-6.48,2.72s-4.83,0.84-7.28,0.84c-3.25,0-6.25-0.37-9-1.12s-5.12-1.93-7.12-3.56
			s-3.55-3.72-4.64-6.28c-1.09-2.56-1.61-5.65-1.56-9.28h1.6c0,3.41,0.51,6.31,1.52,8.68s2.44,4.31,4.28,5.8
			c1.84,1.49,4.03,2.57,6.56,3.24s5.32,1,8.36,1c2.24,0,4.47-0.25,6.68-0.76c2.21-0.51,4.2-1.32,5.96-2.44s3.19-2.56,4.28-4.32
			c1.09-1.76,1.64-3.87,1.64-6.32c0-2.88-0.63-5.16-1.88-6.84c-1.25-1.68-2.85-3.01-4.8-4c-1.95-0.99-4.11-1.73-6.48-2.24
			s-4.65-1.03-6.84-1.56c-2.29-0.53-4.59-1.09-6.88-1.68c-2.29-0.59-4.36-1.4-6.2-2.44s-3.32-2.43-4.44-4.16s-1.68-3.99-1.68-6.76
			c0-2.83,0.59-5.19,1.76-7.08s2.69-3.4,4.56-4.52c1.87-1.12,3.96-1.92,6.28-2.4c2.32-0.48,4.63-0.72,6.92-0.72
			c2.83,0,5.43,0.31,7.8,0.92s4.45,1.6,6.24,2.96c1.79,1.36,3.21,3.15,4.28,5.36c1.07,2.21,1.68,4.92,1.84,8.12h-1.6
			C1106.86,353.21,1106.31,350.74,1105.33,348.74z"/>
	</g>
</g>
</svg>
